<svg xmlns="http://www.w3.org/2000/svg" fill="none" viewBox="-1 -1 32 32" id="Information-Circle--Streamline-Ultimate" height="32" width="32">
  <desc>
    Information Circle Streamline Icon: https://streamlinehq.com
  </desc>
  <path stroke="#000000" stroke-linecap="round" stroke-linejoin="round" d="M14.926625 21.650624999999998v-7.65975c0 -0.29025 -0.11525 -0.568625 -0.3205 -0.7737499999999999 -0.20525000000000002 -0.20525000000000002 -0.4835 -0.3205 -0.7737499999999999 -0.3205h-1.09425" stroke-width="2"></path>
  <path stroke="#000000" stroke-linecap="round" stroke-linejoin="round" d="M14.3795 9.66115c-0.30224999999999996 0 -0.547125 -0.2449625 -0.547125 -0.547125 0 -0.302175 0.24487499999999998 -0.547125 0.547125 -0.547125" stroke-width="2"></path>
  <path stroke="#000000" stroke-linecap="round" stroke-linejoin="round" d="M14.3795 9.66115c0.30224999999999996 0 0.547125 -0.2449625 0.547125 -0.547125 0 -0.302175 -0.24487499999999998 -0.547125 -0.547125 -0.547125" stroke-width="2"></path>
  <path stroke="#000000" stroke-linecap="round" stroke-linejoin="round" d="M15 29.0355c7.751625 0 14.0355 -6.283875 14.0355 -14.0355C29.0355 7.2484125 22.751625 0.9645075000000001 15 0.9645075000000001 7.2484125 0.9645075000000001 0.9645075000000001 7.2484125 0.9645075000000001 15 0.9645075000000001 22.751625 7.2484125 29.0355 15 29.0355Z" stroke-width="2"></path>
  <path stroke="#000000" stroke-linecap="round" stroke-linejoin="round" stroke-miterlimit="10" d="M12.738125 21.6505h4.523750000000001" stroke-width="2"></path>
</svg>