<svg xmlns="http://www.w3.org/2000/svg" fill="none" viewBox="-1 -1 32 32" id="Amazon-Web-Service-Sagemaker--Streamline-Ultimate" height="32" width="32">
  <desc>
    Amazon Web Service Sagemaker Streamline Icon: https://streamlinehq.com
  </desc>
  <path stroke="currentColor" stroke-linecap="round" stroke-linejoin="round" stroke-miterlimit="10" d="M20 16.24975c1.0355 0 1.875 -0.8394999999999999 1.875 -1.875 0 -1.035625 -0.8394999999999999 -1.87505 -1.875 -1.87505s-1.875 0.8394250000000001 -1.875 1.87505c0 1.0355 0.8394999999999999 1.875 1.875 1.875Z" stroke-width="2"></path>
  <path stroke="currentColor" stroke-linecap="round" stroke-linejoin="round" stroke-miterlimit="10" d="M19.625 7.3746875c-0.138125 0 -0.25 -0.111925 -0.25 -0.25 0 -0.1380625 0.111875 -0.2499875 0.25 -0.2499875" stroke-width="2"></path>
  <path stroke="currentColor" stroke-linecap="round" stroke-linejoin="round" stroke-miterlimit="10" d="M19.625 7.3746875c0.138 0 0.25 -0.111925 0.25 -0.25 0 -0.1380625 -0.112 -0.2499875 -0.25 -0.2499875" stroke-width="2"></path>
  <path stroke="currentColor" stroke-linecap="round" stroke-linejoin="round" stroke-miterlimit="10" d="M25.25 14.37475c-0.138125 0 -0.25 -0.111875 -0.25 -0.24987499999999999 0 -0.138125 0.111875 -0.25 0.25 -0.25" stroke-width="2"></path>
  <path stroke="currentColor" stroke-linecap="round" stroke-linejoin="round" stroke-miterlimit="10" d="M25.25 14.37475c0.138 0 0.25 -0.111875 0.25 -0.24987499999999999 0 -0.138125 -0.112 -0.25 -0.25 -0.25" stroke-width="2"></path>
  <path stroke="currentColor" stroke-linecap="round" stroke-linejoin="round" stroke-miterlimit="10" d="M19 24.37475c-0.138125 0 -0.25 -0.111875 -0.25 -0.24987499999999999 0 -0.138125 0.111875 -0.25 0.25 -0.25" stroke-width="2"></path>
  <path stroke="currentColor" stroke-linecap="round" stroke-linejoin="round" stroke-miterlimit="10" d="M19 24.37475c0.138 0 0.25 -0.111875 0.25 -0.24987499999999999 0 -0.138125 -0.112 -0.25 -0.25 -0.25" stroke-width="2"></path>
  <path stroke="currentColor" stroke-linecap="round" stroke-linejoin="round" stroke-miterlimit="10" d="M15 16.24975v10" stroke-width="2"></path>
  <path stroke="currentColor" stroke-linecap="round" stroke-linejoin="round" stroke-miterlimit="10" d="M15 19.99975h5" stroke-width="2"></path>
  <path stroke="currentColor" stroke-linecap="round" stroke-linejoin="round" stroke-miterlimit="10" d="m5.625 8.1247 3.125 1.875v5.62505l3.0348 3.03475" stroke-width="2"></path>
  <path stroke="currentColor" stroke-linecap="round" stroke-linejoin="round" stroke-miterlimit="10" d="m1.25 17.5 3 -2.125" stroke-width="2"></path>
  <path stroke="currentColor" stroke-linecap="round" stroke-linejoin="round" stroke-miterlimit="10" d="m10.625 1.5809625 0 4.6686625" stroke-width="2"></path>
  <path stroke="currentColor" stroke-linecap="round" stroke-linejoin="round" stroke-miterlimit="10" d="m15 16.24975 -5 3.75" stroke-width="2"></path>
  <path stroke="currentColor" stroke-linecap="round" stroke-linejoin="round" stroke-miterlimit="10" d="m8.047712500000001 27.086125000000003 2.57735 -2.086375" stroke-width="2"></path>
  <path stroke="currentColor" stroke-linecap="round" stroke-linejoin="round" stroke-miterlimit="10" d="m15.000125 10.6247 -2.25 2.25005" stroke-width="2"></path>
  <path stroke="currentColor" stroke-linecap="round" stroke-linejoin="round" stroke-miterlimit="10" d="M15 3.4264375000000005 18.125 0.9375l6.25 3.2356249999999998v4.2311875l4.375 3.2356249999999998v6.2223125l-4.375 2.9867500000000002v4.977875l-6.25 3.2356249999999998 -3.125 -2.488875L11.875 29.0625l-6.25 -3.2356249999999998v-4.977875L1.25 17.86225V11.639937499999998l4.375 -3.2356249999999998V4.173125L11.875 0.9375 15 3.4264375000000005Zm0 0v7.217924999999999l3.3935 2.7541375" stroke-width="2"></path>
</svg>