<svg viewBox="-1 -1 32 32" xmlns="http://www.w3.org/2000/svg" id="Cash-Payment-Coin-1--Streamline-Ultimate" height="32" width="32">
  <desc>
    Cash Payment Coin 1 Streamline Icon: https://streamlinehq.com
  </desc>
  <path d="m9.32125 11.535 3.59 -3.3912500000000003a2.44625 2.44625 0 0 1 1.35875 -0.41250000000000003H18.875a2.4425 2.4425 0 0 1 2.0925 1.18125l0.4375 0.7224999999999999A2.44625 2.44625 0 0 1 21.5 12l-0.39625 0.7925a2.44375 2.44375 0 0 1 -2.66625 1.30375l-3.9524999999999997 -0.79a0.8087500000000001 0.8087500000000001 0 0 0 -0.61 0.125 2.42125 2.42125 0 0 0 -1.07375 2.26375 0.9425 0.9425 0 0 0 0.5974999999999999 0.78625l6.68625 2.57125a2.445 2.445 0 0 0 1.6075 0.051250000000000004l7.1362499999999995 -2.22875" fill="none" stroke="currentColor" stroke-linecap="round" stroke-linejoin="round" stroke-width="2"></path>
  <path d="M28.8275 7.21375 23.375 3.855a2.4562500000000003 2.4562500000000003 0 0 0 -1.43125 -0.355l-8.7775 0.51625a2.44625 2.44625 0 0 0 -1.4812500000000002 0.60875l-4.375 3.8937500000000003a2.435 2.435 0 0 0 -0.6950000000000001 1.05375l-0.84375 2.51625" fill="none" stroke="currentColor" stroke-linecap="round" stroke-linejoin="round" stroke-width="2"></path>
  <path d="M10.546249999999999 15.2575H8a1.67625 1.67625 0 0 0 -0.625 3.23375l2.5787500000000003 1.0325a1.6775000000000002 1.6775000000000002 0 0 1 -0.625 3.23375H6.796250000000001" fill="none" stroke="currentColor" stroke-linecap="round" stroke-linejoin="round" stroke-width="2"></path>
  <path d="m8.67125 15.2575 0 -0.9375" fill="none" stroke="currentColor" stroke-linecap="round" stroke-linejoin="round" stroke-width="2"></path>
  <path d="m8.67125 23.695 0 -0.9375" fill="none" stroke="currentColor" stroke-linecap="round" stroke-linejoin="round" stroke-width="2"></path>
  <path d="M10.280000000000001 11.68a7.49 7.49 0 1 0 5.735 5.795" fill="none" stroke="currentColor" stroke-linecap="round" stroke-linejoin="round" stroke-width="2"></path>
</svg>
