<svg xmlns="http://www.w3.org/2000/svg" fill="none" viewBox="-1 -1 32 32">
  <desc>
    Layers Lock Streamline Icon adapted for NEAR AI
  </desc>
  <path stroke="currentColor" stroke-linecap="round" stroke-linejoin="round" d="M10.3162625 17.08c-2.9389375 -0.94325 -5.5249375 -2.751125 -7.42 -5.1875l-1.51125 -1.9425000000000001c-0.1277125 -0.16446249999999998 -0.19704 -0.366775 -0.19704 -0.5750000000000001s0.0693275 -0.4105375 0.19704 -0.5750000000000001l1.51125 -1.9425000000000001c1.4336250000000001 -1.8431624999999998 3.2692500000000004 -3.3346 5.3668625 -4.36055C10.360737499999999 1.471 12.665 0.9376212500000001 15 0.9375v0c2.3352500000000003 0.00002375 4.63975 0.53335 6.7375 1.5593000000000001 2.0978749999999997 1.0259500000000001 3.93375 2.5174374999999998 5.3675 4.3607000000000005l1.51 1.9425000000000001c0.128125 0.16428749999999998 0.19775 0.3666625 0.19775 0.5750000000000001 0 0.2083375 -0.06962499999999999 0.4107125 -0.19775 0.5750000000000001l-1.51 1.9425000000000001" stroke-width="2"></path>
  <path stroke="currentColor" stroke-linecap="round" stroke-linejoin="round" d="M13.125 13.671249999999999c-0.849125 -0.371 -1.56915 -0.985625 -2.0690749999999998 -1.765825 -0.499925 -0.78025 -0.7573000000000001 -1.6912125 -0.7395875000000001 -2.6177125 0.0177 -0.9265 0.30970000000000003 -1.82695 0.8390625 -2.587525 0.5293749999999999 -0.7605875 1.2723499999999999 -1.34715 2.134975 -1.6855375000000001 0.86275 -0.33840000000000003 1.806375 -0.4134375 2.7116249999999997 -0.21562499999999998 0.905375 0.19779999999999998 1.73175 0.659575 2.374625 1.326925 0.642875 0.6673625 1.0735000000000001 1.51035 1.2375 2.4224125 0.163875 0.9120625 0.05374999999999999 1.8522375 -0.31662500000000005 2.7016875000000002" stroke-width="2"></path>
  <path stroke="currentColor" stroke-linecap="round" stroke-linejoin="round" d="M25.3125 19.6875h-7.5c-1.0355 0 -1.875 0.8394999999999999 -1.875 1.875v5.625c0 1.0355 0.8394999999999999 1.875 1.875 1.875h7.5c1.0355 0 1.875 -0.8394999999999999 1.875 -1.875v-5.625c0 -1.0355 -0.8394999999999999 -1.875 -1.875 -1.875Z" stroke-width="2"></path>
  <path stroke="currentColor" stroke-linecap="round" stroke-linejoin="round" d="M21.5625 14.0625c-0.9944999999999999 0 -1.948375 0.395125 -2.651625 1.098375 -0.7032499999999999 0.7032499999999999 -1.098375 1.6571250000000002 -1.098375 2.651625v1.875h7.5v-1.875c0 -0.9944999999999999 -0.395125 -1.948375 -1.098375 -2.651625 -0.7032499999999999 -0.7032499999999999 -1.6571250000000002 -1.098375 -2.651625 -1.098375Z" stroke-width="2"></path>
  <path stroke="currentColor" d="M21.5625 24.880125c-0.258875 0 -0.46875 -0.20987499999999998 -0.46875 -0.46875 0 -0.259 0.20987499999999998 -0.46875 0.46875 -0.46875" stroke-width="2"></path>
  <path stroke="currentColor" d="M21.5625 24.880125c0.258875 0 0.46875 -0.20987499999999998 0.46875 -0.46875 0 -0.259 -0.20987499999999998 -0.46875 -0.46875 -0.46875" stroke-width="2"></path>
</svg>

