<svg xmlns="http://www.w3.org/2000/svg" fill="none" viewBox="-1 -1 32 32">
  <desc>
    Color Blind Streamline Icon adapted for NEAR AI
  </desc>
  <path stroke="currentColor" stroke-linecap="round" stroke-linejoin="round" stroke-width="2" d="M11.287475 18.65325c0.5009375 0.501 1.0956625 0.8985 1.75015 1.169625 0.654625 0.27125 1.356125 0.41075 2.064625 0.410875 0.7085 0 1.41-0.1395 2.064625-0.4105 0.654625-0.271125 1.249375-0.6685 1.750375-1.169375 0.501-0.501 0.8985-1.095625 1.169625-1.75025 0.27125-0.6545 0.410875-1.356 0.410875-2.0645 0.000125-0.7085-0.139375-1.410125-0.4105-2.064625-0.271125-0.654625-0.668375-1.2494-1.169375-1.750425"/>
  <path stroke="currentColor" stroke-linecap="round" stroke-linejoin="round" stroke-width="2" d="M28.3535 1.5884375 1.5291625 28.411625"/>
  <path stroke="currentColor" stroke-width="2" d="M10.72035 10.914075c-0.2531375 0-0.4583375-0.2052-0.4583375-0.4583375 0-0.253125 0.2052-0.4583375 0.4583375-0.4583375"/>
  <path stroke="currentColor" stroke-width="2" d="M10.72035 10.914075c0.253125 0 0.4583375-0.2052 0.4583375-0.4583375 0-0.253125-0.2052125-0.4583375-0.4583375-0.4583375"/>
  <path stroke="currentColor" stroke-width="2" d="M14.998125 9.3863c-0.253125 0-0.45825-0.2052125-0.45825-0.4583375 0-0.2531375 0.205125-0.4583375 0.45825-0.4583375"/>
  <path stroke="currentColor" stroke-width="2" d="M14.998125 9.3863c0.253125 0 0.458375-0.2052125 0.458375-0.4583375 0-0.2531375-0.20525-0.4583375-0.458375-0.4583375"/>
  <path stroke="currentColor" stroke-width="2" d="M9.1925625 15.191875c-0.2531375 0-0.4583375-0.205125-0.4583375-0.45825 0-0.25325 0.2052-0.458375 0.4583375-0.458375"/>
  <path stroke="currentColor" stroke-width="2" d="M9.1925625 15.191875c0.253125 0 0.4583375-0.205125 0.4583375-0.45825 0-0.25325-0.2052125-0.458375-0.4583375-0.458375"/>
  <path stroke="currentColor" stroke-linecap="round" stroke-linejoin="round" stroke-width="2" d="M7.838325 22.103625c2.0903125 1.503875 4.585525 2.342625 7.1598 2.406625 5.01125 0.099 10.09325-4.076125 13.2295-8.167 0.3395-0.469 0.522375-1.033125 0.522375-1.612125 0-0.579-0.182875-1.143125-0.522375-1.612125-1.63775-2.1517375-3.6005-4.03535-5.817875-5.5831625"/>
  <path stroke="currentColor" stroke-linecap="round" stroke-linejoin="round" stroke-width="2" d="M18.6575 5.5888125c-1.172-0.428275-2.411625-0.6419125-3.659375-0.630675-4.9267875-0.1026625-10.022275 3.9844875-13.22575 8.1608625C1.4328125 13.588 1.25 14.152125 1.25 14.731125c0 0.579 0.1828125 1.143125 0.522375 1.612125 0.9825375 1.28025 2.0753125 2.472 3.2658125 3.561625"/>
</svg>

