<svg xmlns="http://www.w3.org/2000/svg" fill="none" viewBox="-1 -1 32 32" id="Cloud-Server--Streamline-Ultimate" height="32" width="32">
  <desc>
    Cloud Server Streamline Icon: https://streamlinehq.com
  </desc>
  <path stroke="currentColor" stroke-linecap="round" stroke-linejoin="round" d="M15 17.8125h1.875" stroke-width="2"></path>
  <path stroke="currentColor" stroke-linecap="round" stroke-linejoin="round" d="M20.625 17.8125H22.5" stroke-width="2"></path>
  <path stroke="currentColor" d="M8.4375 18.28125c-0.2588875 0 -0.46875 -0.20987499999999998 -0.46875 -0.46875s0.2098625 -0.46875 0.46875 -0.46875" stroke-width="2"></path>
  <path stroke="currentColor" d="M8.4375 18.28125c0.2588875 0 0.46875 -0.20987499999999998 0.46875 -0.46875s-0.2098625 -0.46875 -0.46875 -0.46875" stroke-width="2"></path>
  <path stroke="currentColor" d="M8.4375 25.78125c-0.2588875 0 -0.46875 -0.20987499999999998 -0.46875 -0.46875s0.2098625 -0.46875 0.46875 -0.46875" stroke-width="2"></path>
  <path stroke="currentColor" d="M8.4375 25.78125c0.2588875 0 0.46875 -0.20987499999999998 0.46875 -0.46875s-0.2098625 -0.46875 -0.46875 -0.46875" stroke-width="2"></path>
  <path stroke="currentColor" stroke-linecap="round" stroke-linejoin="round" d="M15 25.3125h1.875" stroke-width="2"></path>
  <path stroke="currentColor" stroke-linecap="round" stroke-linejoin="round" d="M20.625 25.3125H22.5" stroke-width="2"></path>
  <path stroke="currentColor" stroke-linecap="round" stroke-linejoin="round" d="M26.25 17.8125c0 0.9944999999999999 -0.395125 1.948375 -1.098375 2.651625 -0.7032499999999999 0.7032499999999999 -1.6571250000000002 1.098375 -2.651625 1.098375H7.5c-0.9945625 0 -1.9483875 -0.395125 -2.65165 -1.098375C4.1450875 19.760875 3.75 18.807000000000002 3.75 17.8125c0 -0.9944999999999999 0.39508750000000004 -1.948375 1.09835 -2.651625C5.551612500000001 14.457625 6.505437499999999 14.0625 7.5 14.0625h15c0.9944999999999999 0 1.948375 0.395125 2.651625 1.098375 0.7032499999999999 0.7032499999999999 1.098375 1.6571250000000002 1.098375 2.651625Z" stroke-width="2"></path>
  <path stroke="currentColor" stroke-linecap="round" stroke-linejoin="round" d="M26.25 25.3125c0 0.9944999999999999 -0.395125 1.948375 -1.098375 2.651625 -0.7032499999999999 0.7032499999999999 -1.6571250000000002 1.098375 -2.651625 1.098375H7.5c-0.9945625 0 -1.9483875 -0.395125 -2.65165 -1.098375C4.1450875 27.260875000000002 3.75 26.307000000000002 3.75 25.3125c0 -0.9944999999999999 0.39508750000000004 -1.948375 1.09835 -2.651625C5.551612500000001 21.957625 6.505437499999999 21.5625 7.5 21.5625h15c0.9944999999999999 0 1.948375 0.395125 2.651625 1.098375 0.7032499999999999 0.7032499999999999 1.098375 1.6571250000000002 1.098375 2.651625Z" stroke-width="2"></path>
  <path stroke="currentColor" stroke-linecap="round" stroke-linejoin="round" d="M28.900125000000003 15.031375c0.210625 -0.894375 0.216375 -1.8247499999999999 0.016875 -2.7217374999999997 -0.19949999999999998 -0.896925 -0.59925 -1.7371625 -1.16925 -2.4578875 -0.569875 -0.7207125000000001 -1.295375 -1.3032875 -2.12225 -1.7041624999999998 -0.82675 -0.40086249999999995 -1.7335 -0.609675 -2.652375 -0.6108 -1.234125 -0.0003625 -2.43875 0.37665 -3.4525 1.080475 -0.2385 -1.3013875 -0.749875 -2.5375125 -1.5006249999999999 -3.626975 -0.7506250000000001 -1.089475 -1.723625 -2.007575 -2.8547499999999997 -2.6938750000000002 -1.131125 -0.6862875 -2.39475 -1.1252075000000001 -3.707825 -1.28785375 -1.3130125000000001 -0.16264625000000002 -2.6456 -0.04533125 -3.91 0.34422875 -1.2644125000000002 0.38954999999999995 -2.4319625 1.0425 -3.4257999999999997 1.915875 -0.993825 0.8733625 -1.7913999999999999 1.9473375000000002 -2.3401875 3.1512125 -0.54879875 1.2038625 -0.83637125 2.510325 -0.8437899999999999 3.8333625 -0.00741875 1.3230374999999999 0.26548499999999997 2.6326375000000004 0.80074 3.8426375000000004" stroke-width="2"></path>
</svg>
