<svg xmlns="http://www.w3.org/2000/svg" fill="none" viewBox="-1 -1 32 32" id="Password-Desktop-Lock-Approved--Streamline-Ultimate" height="32" width="32">
  <desc>
    Password Desktop Lock Approved Streamline Icon: https://streamlinehq.com
  </desc>
  <path stroke="currentColor" stroke-linecap="round" stroke-linejoin="round" d="M16.875 23.4375c0.1065 2.00975 0.754375 3.9533750000000003 1.875 5.625H11.25c1.1206625000000001 -1.671625 1.7685 -3.6152499999999996 1.875 -5.625" stroke-width="2"></path>
  <path stroke="currentColor" stroke-linecap="round" stroke-linejoin="round" d="M8.4375 29.0625h13.125" stroke-width="2"></path>
  <path stroke="currentColor" stroke-linecap="round" stroke-linejoin="round" d="M29.0625 19.6875v1.875c0 0.49724999999999997 -0.1975 0.97425 -0.5491250000000001 1.325875s-0.8286250000000001 0.5491250000000001 -1.325875 0.5491250000000001H2.8125c-0.497275 0 -0.9742000000000001 -0.1975 -1.325825 -0.5491250000000001C1.1350437500000001 22.536749999999998 0.9375 22.05975 0.9375 21.5625v-18.75c0 -0.497275 0.19754375000000002 -0.9742000000000001 0.549175 -1.325825C1.8382999999999998 1.1350437500000001 2.315225 0.9375 2.8125 0.9375h13.125" stroke-width="2"></path>
  <path stroke="currentColor" stroke-linecap="round" stroke-linejoin="round" d="M27.1875 6.5625h-7.5c-1.0355 0 -1.875 0.8394625 -1.875 1.875v5.625c0 1.0355 0.8394999999999999 1.875 1.875 1.875h7.5c1.0355 0 1.875 -0.8394999999999999 1.875 -1.875v-5.625c0 -1.0355375 -0.8394999999999999 -1.875 -1.875 -1.875Z" stroke-width="2"></path>
  <path stroke="currentColor" stroke-linecap="round" stroke-linejoin="round" d="M19.6875 6.5625v-1.875c0 -0.9945625 0.395125 -1.9483875 1.098375 -2.65165C21.489124999999998 1.3325875 22.442999999999998 0.9375 23.4375 0.9375v0c0.9944999999999999 0 1.948375 0.39508750000000004 2.651625 1.09835 0.7032499999999999 0.7032625000000001 1.098375 1.6570874999999998 1.098375 2.65165v1.875" stroke-width="2"></path>
  <g>
    <path stroke="currentColor" d="M23.4375 11.71875c-0.258875 0 -0.46875 -0.2098625 -0.46875 -0.46875s0.20987499999999998 -0.46875 0.46875 -0.46875" stroke-width="2"></path>
    <path stroke="currentColor" d="M23.4375 11.71875c0.258875 0 0.46875 -0.2098625 0.46875 -0.46875s-0.20987499999999998 -0.46875 -0.46875 -0.46875" stroke-width="2"></path>
  </g>
  <path stroke="currentColor" stroke-linecap="round" stroke-linejoin="round" d="m13.125 8.4375 -5.3125 6.25L5 11.875" stroke-width="2"></path>
</svg>